PathFileType	4	(X/Y/Z)	TVC_36_BWA_02_walk_RCNL2025.trc
DataRate	CameraRate	NumFrames	NumMarkers	Units	OrigDataRate	OrigDataStartFrame	OrigNumFrames
100	100	7	27	mm	100	183	487
Frame#	Time	R_Shoulder			L_Shoulder			C7			J_Notch			R_Elbow			L_Elbow			R_Wrist			L_Wrist			R_Asis			L_Asis			R_Psis			L_Psis			Sacral			Thoracic			Sternum			R_Thigh_Lateral			R_Knee_Lateral			R_Shank_Lateral			R_Ankle_Lateral			R_Heel			R_Toe			L_Thigh_Lateral			L_Knee_Lateral			L_Shank_Lateral			L_Ankle_Lateral			L_Heel			L_Toe		
		X1	Y1	Z1	X2	Y2	Z2	X3	Y3	Z3	X4	Y4	Z4	X5	Y5	Z5	X6	Y6	Z6	X7	Y7	Z7	X8	Y8	Z8	X9	Y9	Z9	X10	Y10	Z10	X11	Y11	Z11	X12	Y12	Z12	X13	Y13	Z13	X14	Y14	Z14	X15	Y15	Z15	X16	Y16	Z16	X17	Y17	Z17	X18	Y18	Z18	X19	Y19	Z19	X20	Y20	Z20	X21	Y21	Z21	X22	Y22	Z22	X23	Y23	Z23	X24	Y24	Z24	X25	Y25	Z25	X26	Y26	Z26	X27	Y27	Z27
183	1.82000000	318.521454	1397.559448	596.821533	233.366760	1368.930176	263.176178	243.519073	1435.446045	441.277466	401.611969	1322.842529	412.246948	293.836945	1146.677734	748.278076	218.683334	1076.890625	159.155792	505.413895	1084.497620	729.549927	404.659210	982.106873	223.056740	396.448730	900.142395	554.661926	346.732147	909.226257	299.213654	214.566864	928.416443	507.936096	197.357635	923.438965	425.020477	205.962250	925.927704	466.478287	213.104034	1158.133789	464.570129	448.947784	1173.773682	392.522919	347.272705	630.368103	632.193298	315.138702	448.068115	566.401428	180.098587	291.428101	619.657349	84.244835	119.479965	555.723633	39.144302	125.371902	504.446655	182.501984	38.636726	526.161133	327.036438	669.301270	210.365051	362.983795	474.275665	270.202057	323.436401	275.721863	219.486893	391.427002	66.705833	264.434967	346.505005	48.911758	306.435883	519.802490	52.322083	304.797272
184	1.83000000	322.244446	1398.718750	594.308594	238.960022	1369.998169	260.877838	248.226746	1436.127197	438.761658	406.609741	1323.918457	410.424744	295.707855	1148.437134	746.020203	224.248077	1078.136841	156.445053	506.920486	1085.049988	729.031525	410.924454	984.717743	219.804253	401.180939	901.411377	553.127625	351.620911	909.152893	297.660736	219.378860	929.718384	506.550903	202.149231	924.704468	423.708984	210.764046	927.211426	465.129944	218.383087	1159.109375	463.102783	454.139526	1174.676636	390.907501	355.808655	631.600098	632.514648	327.369202	448.450470	568.260925	188.837357	294.515381	620.602234	89.536804	124.926613	556.778259	45.354366	132.985870	505.429749	183.527191	38.923630	526.301147	328.202667	668.820557	210.057846	360.904999	473.646912	270.841187	321.605042	275.300171	220.257431	391.240692	66.664833	264.827148	346.378906	48.703568	306.928375	519.795776	52.331635	304.810028
185	1.84000000	325.982788	1399.605957	591.817810	244.754654	1370.894043	258.530914	252.990494	1436.562256	436.238312	411.674042	1324.752075	408.661102	297.378204	1149.796875	743.584351	229.819061	1079.258057	153.637894	508.114410	1084.915771	728.606171	417.074020	987.005035	216.528343	405.831299	902.477966	551.572998	356.364563	908.899048	296.167542	224.080704	930.848938	505.191406	206.802902	925.828918	422.435394	215.441803	928.338928	463.813400	223.671204	1159.815552	461.695374	459.340210	1175.309814	389.351929	364.786957	632.757996	633.052979	340.574005	448.765137	570.305237	198.646286	297.685913	621.716431	95.611900	130.791458	557.987854	52.465107	141.155746	506.594086	184.808838	39.495472	526.494202	329.639740	668.345947	209.672928	358.884552	473.011536	271.343140	319.838837	274.845551	220.852264	391.044250	66.589569	265.130005	346.241516	48.487671	307.344666	519.780640	52.342148	304.782196
186	1.85000000	329.778076	1400.192993	589.378052	250.735535	1371.592041	256.157410	257.825439	1436.733276	433.737000	416.807892	1325.302246	406.968964	298.888489	1150.729858	741.002747	235.413849	1080.234985	150.730515	509.016022	1084.085022	728.279449	423.126190	988.936523	213.243729	410.332916	903.283997	550.016785	360.905945	908.498596	294.755035	228.627197	931.756958	503.875000	211.274750	926.778931	421.215424	219.950974	929.267944	462.545212	228.953186	1160.209717	460.342712	464.534668	1175.631104	387.851166	374.092133	633.832947	633.806580	354.653320	449.047455	572.460999	209.534378	300.920624	622.970642	102.528618	137.040070	559.323853	60.502842	149.786346	507.911224	186.500595	40.431435	526.767212	331.289398	667.897278	209.173843	357.005432	472.390320	271.650818	318.207275	274.372284	221.216156	390.837036	66.476540	265.311798	346.096039	48.270691	307.654022	519.753174	52.350666	304.708923
187	1.86000000	333.668304	1400.462646	587.020569	256.878906	1372.073364	253.781174	262.744263	1436.637939	431.286469	422.010712	1325.537476	405.361511	300.289032	1151.221558	738.314209	241.049988	1081.052979	147.723602	509.654663	1082.553040	728.055328	429.096970	990.487793	209.964088	414.626221	903.780701	548.484314	365.199158	907.992249	293.442078	232.978912	932.397705	502.627991	215.527267	927.529541	420.073730	224.253090	929.963623	461.350861	234.211349	1160.261841	459.043182	469.705261	1175.610352	386.403503	383.583160	634.818420	634.758850	369.470978	449.346924	574.639893	221.468903	304.197479	624.317932	110.330841	143.606155	560.738159	69.466064	158.728485	509.326538	188.807404	41.801929	527.154724	333.054199	667.496155	208.536591	355.338928	471.804321	271.725494	316.767120	273.896088	221.318069	390.617371	66.325554	265.353851	345.947052	48.059597	307.840149	519.710693	52.354492	304.590057
188	1.87000000	337.686493	1400.412231	584.778564	263.153992	1372.329102	251.427994	267.756592	1436.291992	428.915161	427.278168	1325.440186	403.852478	301.638367	1151.271606	735.561279	246.745346	1081.704712	144.623550	510.068237	1080.320496	727.935150	434.999802	991.642212	206.702454	418.666260	903.935059	547.004761	369.211548	907.424500	292.241211	237.106216	932.740601	501.483154	219.533279	928.069214	419.041168	228.319748	930.404907	460.262161	239.426743	1159.958496	457.800293	474.833038	1175.234131	385.012604	393.106842	635.712585	635.877380	384.859894	449.725983	576.746460	234.373062	307.492249	625.697449	119.045532	150.385727	562.166321	79.325012	167.776596	510.762543	191.982651	43.658115	527.699524	334.814758	667.163696	207.753189	353.940887	471.273376	271.550995	315.559235	273.433990	221.154266	390.383545	66.140228	265.251587	345.800781	47.861233	307.901520	519.652283	52.351665	304.430634
189	1.88000000	341.859406	1400.056030	582.686157	269.525299	1372.363159	249.126205	272.868286	1435.729858	426.651154	432.602478	1325.010620	402.456207	303.001892	1150.894775	732.788391	252.517914	1082.193481	141.443802	510.302643	1077.393066	727.916962	440.845703	992.391418	203.472023	422.427185	903.734924	545.608276	372.924805	906.840454	291.155334	240.992035	932.776123	500.474884	223.278839	928.402466	418.150116	232.135437	930.589294	459.312500	244.580475	1159.306885	456.623932	479.899170	1174.509766	383.688232	402.514191	636.521912	637.114014	400.629913	450.256805	578.687622	248.126572	310.778168	627.039795	128.681839	157.233627	563.532654	90.025803	176.671585	512.125671	196.317398	46.021439	528.451050	336.451050	666.917175	206.833420	352.848511	470.813995	271.135132	314.606476	273.003082	220.748032	390.135010	65.927521	265.013824	345.664459	47.681656	307.850159	519.578918	52.341331	304.240295
